<svg version="1.1" id="Layer_1" xmlns="http://www.w3.org/2000/svg" xmlns:xlink="http://www.w3.org/1999/xlink" x="0px" y="0px"
	 width="100%" viewBox="0 0 1024 1024" enable-background="new 0 0 1024 1024" xml:space="preserve">
<path fill="#000000" opacity="1.000000" stroke="none" 
	d="
M570.000000,1025.000000 
	C380.000000,1025.000000 190.500000,1025.000000 1.000000,1025.000000 
	C1.000000,683.666687 1.000000,342.333344 1.000000,1.000000 
	C342.333344,1.000000 683.666687,1.000000 1025.000000,1.000000 
	C1025.000000,342.333344 1025.000000,683.666687 1025.000000,1025.000000 
	C873.500000,1025.000000 722.000000,1025.000000 570.000000,1025.000000 
M164.904617,604.500000 
	C164.904617,661.492554 164.898224,718.485107 164.907364,775.477661 
	C164.911850,803.343933 181.764099,820.112793 209.749680,820.123352 
	C228.913849,820.130615 248.078018,820.124817 267.242188,820.124695 
	C287.072937,820.124573 306.903870,820.073914 326.734344,820.145447 
	C336.529358,820.180847 345.501740,817.769348 353.339661,811.761597 
	C365.446381,802.481812 369.754547,789.783081 369.750885,774.986816 
	C369.704224,586.678040 369.720123,398.369263 369.720123,210.060501 
	C369.720123,209.227280 369.735779,208.393677 369.716736,207.560883 
	C369.142822,182.470322 352.278503,165.086899 327.745117,164.962341 
	C287.418091,164.757568 247.087616,164.727234 206.762878,165.093018 
	C200.473938,165.150085 193.667664,166.574570 188.032822,169.296539 
	C171.686905,177.192612 164.850967,191.121796 164.861801,209.051483 
	C164.941177,340.534271 164.904633,472.017151 164.904617,604.500000 
M415.322083,798.030090 
	C423.729126,813.137268 436.736389,820.154907 453.859772,820.136719 
	C493.025574,820.095154 532.191467,820.145874 571.357300,820.116577 
	C598.284241,820.096436 615.310242,803.097839 615.318604,776.099854 
	C615.351929,668.935425 615.344971,561.770996 615.282898,454.606628 
	C615.280457,450.474487 615.092529,446.206635 614.080994,442.233734 
	C609.015381,422.337830 593.678772,410.758728 572.267029,410.700165 
	C532.768127,410.592102 493.268402,410.571716 453.769684,410.703918 
	C427.951294,410.790314 410.738312,427.822601 410.713379,453.570007 
	C410.608917,561.401001 410.590576,669.232300 410.853394,777.062744 
	C410.869873,783.828491 413.553894,790.587769 415.322083,798.030090 
M861.095154,221.500092 
	C861.095154,217.500565 861.097900,213.501022 861.094788,209.501495 
	C861.073120,181.847717 844.231995,164.919556 816.686584,164.908646 
	C778.024658,164.893341 739.362732,164.891998 700.700806,164.909286 
	C673.546448,164.921432 656.305054,182.023911 656.294556,209.116943 
	C656.258545,302.438812 656.260498,395.760712 656.344055,489.082489 
	C656.348083,493.530762 656.694946,498.136322 657.864624,502.399017 
	C663.303528,522.219482 678.240967,533.351501 699.562256,533.420105 
	C739.056946,533.547119 778.554260,533.647461 818.045776,533.270325 
	C824.666382,533.207031 831.816040,531.861267 837.765747,529.070801 
	C854.225281,521.351196 861.140076,507.392059 861.126282,489.467255 
	C861.057556,400.478241 861.095032,311.489136 861.095154,221.500092 
M656.280518,651.499878 
	C656.280579,693.148132 656.212769,734.796448 656.305603,776.444519 
	C656.363342,802.346619 673.410034,819.977295 698.703735,820.080444 
	C738.851990,820.244141 779.002075,820.271362 819.149963,820.068909 
	C843.645508,819.945374 860.970825,802.590210 861.044617,778.096619 
	C861.206787,724.287598 861.237915,670.476807 860.906433,616.669312 
	C860.866760,610.226746 859.380920,603.257629 856.609192,597.469238 
	C848.743347,581.042725 834.577393,574.362976 816.793152,574.379822 
	C779.976135,574.414795 743.159058,574.371765 706.342041,574.414307 
	C701.853882,574.419495 697.356201,574.620239 692.879822,574.956177 
	C674.531738,576.333008 658.131775,592.245850 657.024292,610.563354 
	C656.221497,623.841919 656.489807,637.185303 656.280518,651.499878 
M410.667145,296.499786 
	C410.667145,303.496918 410.521820,310.497925 410.708557,317.490082 
	C410.890289,324.293365 410.433258,331.317535 411.966522,337.842957 
	C416.718475,358.066528 432.616180,369.668976 454.537933,369.701935 
	C493.520966,369.760559 532.504272,369.763855 571.487061,369.653717 
	C575.769165,369.641632 580.198975,369.282654 584.304077,368.153351 
	C604.308777,362.649963 615.281677,347.637146 615.315186,325.962341 
	C615.375671,286.812714 615.364563,247.662903 615.283569,208.513367 
	C615.275330,204.546967 615.085388,200.456085 614.126099,196.637436 
	C609.113770,176.685440 593.676941,164.964127 572.462036,164.925568 
	C533.479126,164.854691 494.486023,165.437088 455.516296,164.715317 
	C429.985565,164.242462 409.917755,182.508606 410.523132,209.540222 
	C411.164520,238.180115 410.667145,266.845520 410.667145,296.499786 
z"/>
<path fill="#E2FBFF" opacity="1.000000" stroke="none" 
	d="
M164.904617,604.000000 
	C164.904633,472.017151 164.941177,340.534271 164.861801,209.051483 
	C164.850967,191.121796 171.686905,177.192612 188.032822,169.296539 
	C193.667664,166.574570 200.473938,165.150085 206.762878,165.093018 
	C247.087616,164.727234 287.418091,164.757568 327.745117,164.962341 
	C352.278503,165.086899 369.142822,182.470322 369.716736,207.560883 
	C369.735779,208.393677 369.720123,209.227280 369.720123,210.060501 
	C369.720123,398.369263 369.704224,586.678040 369.750885,774.986816 
	C369.754547,789.783081 365.446381,802.481812 353.339661,811.761597 
	C345.501740,817.769348 336.529358,820.180847 326.734344,820.145447 
	C306.903870,820.073914 287.072937,820.124573 267.242188,820.124695 
	C248.078018,820.124817 228.913849,820.130615 209.749680,820.123352 
	C181.764099,820.112793 164.911850,803.343933 164.907364,775.477661 
	C164.898224,718.485107 164.904617,661.492554 164.904617,604.000000 
z"/>
<path fill="#FFE6EA" opacity="1.000000" stroke="none" 
	d="
M415.159485,797.690063 
	C413.553894,790.587769 410.869873,783.828491 410.853394,777.062744 
	C410.590576,669.232300 410.608917,561.401001 410.713379,453.570007 
	C410.738312,427.822601 427.951294,410.790314 453.769684,410.703918 
	C493.268402,410.571716 532.768127,410.592102 572.267029,410.700165 
	C593.678772,410.758728 609.015381,422.337830 614.080994,442.233734 
	C615.092529,446.206635 615.280457,450.474487 615.282898,454.606628 
	C615.344971,561.770996 615.351929,668.935425 615.318604,776.099854 
	C615.310242,803.097839 598.284241,820.096436 571.357300,820.116577 
	C532.191467,820.145874 493.025574,820.095154 453.859772,820.136719 
	C436.736389,820.154907 423.729126,813.137268 415.159485,797.690063 
z"/>
<path fill="#E9E2FF" opacity="1.000000" stroke="none" 
	d="
M861.095154,222.000076 
	C861.095032,311.489136 861.057556,400.478241 861.126282,489.467255 
	C861.140076,507.392059 854.225281,521.351196 837.765747,529.070801 
	C831.816040,531.861267 824.666382,533.207031 818.045776,533.270325 
	C778.554260,533.647461 739.056946,533.547119 699.562256,533.420105 
	C678.240967,533.351501 663.303528,522.219482 657.864624,502.399017 
	C656.694946,498.136322 656.348083,493.530762 656.344055,489.082489 
	C656.260498,395.760712 656.258545,302.438812 656.294556,209.116943 
	C656.305054,182.023911 673.546448,164.921432 700.700806,164.909286 
	C739.362732,164.891998 778.024658,164.893341 816.686584,164.908646 
	C844.231995,164.919556 861.073120,181.847717 861.094788,209.501495 
	C861.097900,213.501022 861.095154,217.500565 861.095154,222.000076 
z"/>
<path fill="#E2EBFE" opacity="1.000000" stroke="none" 
	d="
M656.280518,650.999817 
	C656.489807,637.185303 656.221497,623.841919 657.024292,610.563354 
	C658.131775,592.245850 674.531738,576.333008 692.879822,574.956177 
	C697.356201,574.620239 701.853882,574.419495 706.342041,574.414307 
	C743.159058,574.371765 779.976135,574.414795 816.793152,574.379822 
	C834.577393,574.362976 848.743347,581.042725 856.609192,597.469238 
	C859.380920,603.257629 860.866760,610.226746 860.906433,616.669312 
	C861.237915,670.476807 861.206787,724.287598 861.044617,778.096619 
	C860.970825,802.590210 843.645508,819.945374 819.149963,820.068909 
	C779.002075,820.271362 738.851990,820.244141 698.703735,820.080444 
	C673.410034,819.977295 656.363342,802.346619 656.305603,776.444519 
	C656.212769,734.796448 656.280579,693.148132 656.280518,650.999817 
z"/>
<path fill="#F5EEDE" opacity="1.000000" stroke="none" 
	d="
M410.667114,295.999756 
	C410.667145,266.845520 411.164520,238.180115 410.523132,209.540222 
	C409.917755,182.508606 429.985565,164.242462 455.516296,164.715317 
	C494.486023,165.437088 533.479126,164.854691 572.462036,164.925568 
	C593.676941,164.964127 609.113770,176.685440 614.126099,196.637436 
	C615.085388,200.456085 615.275330,204.546967 615.283569,208.513367 
	C615.364563,247.662903 615.375671,286.812714 615.315186,325.962341 
	C615.281677,347.637146 604.308777,362.649963 584.304077,368.153351 
	C580.198975,369.282654 575.769165,369.641632 571.487061,369.653717 
	C532.504272,369.763855 493.520966,369.760559 454.537933,369.701935 
	C432.616180,369.668976 416.718475,358.066528 411.966522,337.842957 
	C410.433258,331.317535 410.890289,324.293365 410.708557,317.490082 
	C410.521820,310.497925 410.667145,303.496918 410.667114,295.999756 
z"/>
</svg>